<svg xmlns="http://www.w3.org/2000/svg" viewBox="0 0 160 160" role="img" aria-labelledby="title desc">
  <title id="title">Lurexa Community concept mark</title>
  <desc id="desc">Overlapping conversation forms arranged as a connected community symbol in the Lurexa brand palette.</desc>
  <defs>
    <linearGradient id="community-a" x1="24" y1="22" x2="118" y2="126" gradientUnits="userSpaceOnUse">
      <stop stop-color="#592BD6"/>
      <stop offset="1" stop-color="#2160DF"/>
    </linearGradient>
    <linearGradient id="community-b" x1="58" y1="40" x2="138" y2="132" gradientUnits="userSpaceOnUse">
      <stop stop-color="#2160DF"/>
      <stop offset="1" stop-color="#12CDD4"/>
    </linearGradient>
  </defs>
  <path d="M24 38c0-10 8-18 18-18h54c10 0 18 8 18 18v31c0 10-8 18-18 18H67L43 105V87h-1c-10 0-18-8-18-18V38Z" fill="url(#community-a)"/>
  <path d="M62 69c0-9 7-16 16-16h42c9 0 16 7 16 16v28c0 9-7 16-16 16h-13v19l-25-19h-4c-9 0-16-7-16-16V69Z" fill="url(#community-b)" opacity=".97"/>
  <circle cx="51" cy="54" r="6" fill="#fff"/>
  <circle cx="69" cy="54" r="6" fill="#fff"/>
  <circle cx="87" cy="54" r="6" fill="#fff"/>
  <path d="M86 84h26M86 96h17" stroke="#fff" stroke-width="7" stroke-linecap="round"/>
  <circle cx="120" cy="36" r="15" fill="#071D67"/>
  <path d="M114 36h12M120 30v12" stroke="#fff" stroke-width="4" stroke-linecap="round"/>
</svg>
